<svg width="90" height="89" viewBox="0 0 90 89" fill="none" xmlns="http://www.w3.org/2000/svg">
<path d="M89.21 0H0L7.87147 79.2468L44.605 88.57L81.3385 79.2468L89.21 0Z" fill="#E65100"/>
<path d="M44.605 6.99023V81.3388L73.9898 73.8821L80.5493 6.99023H44.605Z" fill="#FF6D00"/>
<path d="M44.605 46.616V37.2928H67.174L65.3291 64.0969L44.605 70.1606V60.364L55.3668 57.1045L56.1457 46.616H44.605ZM67.9529 27.9696L68.7421 18.6465H44.605V27.9696H67.9529Z" fill="white"/>
<path d="M44.6048 60.364V70.1606L23.8807 64.0969L22.825 51.2775H33.3203L33.843 57.1045L44.6048 60.364ZM31.7521 27.9696H44.6048V18.6465H20.7239L22.5687 46.616H44.6048V37.2928H32.5311L31.7521 27.9696Z" fill="#EEEEEE"/>
</svg>
