<svg width="89" height="89" viewBox="0 0 89 89" fill="none" xmlns="http://www.w3.org/2000/svg">
<path d="M44.5002 27.8125C21.9749 27.8125 3.7085 35.2871 3.7085 44.5C3.7085 53.7129 21.9749 61.1875 44.5002 61.1875C67.0254 61.1875 85.2918 53.7129 85.2918 44.5C85.2918 35.2871 67.0254 27.8125 44.5002 27.8125Z" stroke="#2196F3" stroke-width="2" stroke-miterlimit="10"/>
<path d="M30.0507 36.1577C18.7809 55.6699 16.1227 75.2256 24.1043 79.832C32.0859 84.4385 47.687 72.3574 58.9496 52.8452C70.2122 33.3403 72.8776 13.7846 64.896 9.17815C56.9144 4.5717 41.3133 16.6528 30.0507 36.1577Z" stroke="#2196F3" stroke-width="2" stroke-miterlimit="10"/>
<path d="M24.1044 9.17072C16.1228 13.7844 18.7809 33.3328 30.0435 52.845C41.3134 72.3572 56.9145 84.431 64.8961 79.8246C72.8777 75.2181 70.2123 55.6697 58.9497 36.1575C47.6871 16.6453 32.086 4.56427 24.1044 9.17072Z" stroke="#2196F3" stroke-width="2" stroke-miterlimit="10"/>
<path d="M44.5002 37.084C40.4007 37.084 37.0835 40.4012 37.0835 44.5007C37.0835 48.6001 40.4007 51.9173 44.5002 51.9173C48.5996 51.9173 51.9168 48.6001 51.9168 44.5007C51.9168 40.4012 48.5996 37.084 44.5002 37.084Z" fill="#F94515"/>
</svg>
