<svg width="90" height="89" viewBox="0 0 90 89" fill="none" xmlns="http://www.w3.org/2000/svg">
<path d="M90 0H0L7.94118 79.6316L45 89L82.0588 79.6316L90 0Z" fill="#0277BD"/>
<path d="M45 7.02539V81.7349L74.645 74.242L81.2626 7.02539H45Z" fill="#039BE5"/>
<path d="M69.0924 18.7363H45V28.1047H57.9665L57.1806 37.4732H45V46.8416H56.6429L55.8571 57.3811L45 60.6564V70.5005L65.9076 64.4074L67.7688 37.4732L69.0924 18.7363Z" fill="white"/>
<path d="M45 18.7363V28.1047H21.4454L20.6492 18.7363H45ZM32.8194 37.4732L33.3571 46.8416H45V37.4732H32.8194ZM33.8845 51.5258H23.2962L24.0924 64.4074L45 70.5005V60.6564L34.143 57.3811L33.8845 51.5258Z" fill="#EEEEEE"/>
</svg>
