<svg width="90" height="89" viewBox="0 0 90 89" fill="none" xmlns="http://www.w3.org/2000/svg">
<path d="M0 88.57V0H89.21V88.57H0Z" fill="#FFD600"/>
<path d="M57.8668 65.1172C59.5665 67.8359 61.4102 70.4414 65.3282 70.4414C68.622 70.4414 70.3409 68.8366 70.3409 66.6087C70.3409 63.9466 68.5644 63.0026 64.9441 61.4544L62.9563 60.6237C57.233 58.2354 53.4207 55.2428 53.4207 48.9274C53.4207 43.1029 57.9628 38.666 65.0497 38.666C70.0912 38.666 73.7211 40.3841 76.3331 44.887L70.1585 48.7669C68.7948 46.3786 67.3256 45.444 65.0497 45.444C62.7258 45.444 61.247 46.8883 61.247 48.7669C61.247 51.0986 62.7258 52.0426 66.1253 53.487L68.113 54.3177C74.8639 57.1403 78.6666 60.029 78.6666 66.5143C78.6666 73.5 73.0489 77.3327 65.5107 77.3327C58.1453 77.3327 53.9584 73.6982 51.6249 69.1953L57.8668 65.1172ZM29.3847 65.3154C30.6235 67.5055 32.5152 69.1953 35.2328 69.1953C37.8352 69.1953 39.3333 68.1852 39.3333 64.2581V38.666H47.5245V65.4948C47.5245 73.6322 42.7231 77.3327 35.713 77.3327C29.3751 77.3327 24.8041 73.113 22.9412 69.1953L29.3847 65.3154Z" fill="#000001"/>
</svg>
